<?xml version="1.0" encoding="UTF-8"?>
<!DOCTYPE svg PUBLIC "-//W3C//DTD SVG 1.1//EN" "http://www.w3.org/Graphics/SVG/1.1/DTD/svg11.dtd">
<svg version="1.1" xmlns="http://www.w3.org/2000/svg" xmlns:xlink="http://www.w3.org/1999/xlink" x="0px" y="0px" width="800" height="800" viewBox="0, 0, 800, 800">
  
  <defs>
   <symbol id="arrow">
           <polygon points="0,10 5,0 10,10" fill="#000000" />
         <line x1="5" y1="10" x2="5" y2="100" stroke="#000000" />
   </symbol>
   
   <symbol id="arrow_pattern">
       
         <rect x="0" y="0" width="200" height="200" fill="none" stroke="#0000ff"/>
         <circle cx="100" cy="100" r="50" stroke="black" stroke-width="1" fill="none" /> 
         
         <g transform="translate(95,0)">
            <polygon points="0,10 5,0 10,10" fill="#000000"/>
            <line x1="5" y1="10" x2="5" y2="100" stroke="#ff0000" />
         </g>
         
         <g transform="translate(200,95) rotate(90)">
            <polygon points="0,10 5,0 10,10" fill="#000000"/>
            <line x1="5" y1="10" x2="5" y2="100" stroke="#ff0000" />
         </g>
         
         <g transform="translate(105,200) rotate(180)">
            <polygon points="0,10 5,0 10,10" fill="#000000"/>
            <line x1="5" y1="10" x2="5" y2="100" stroke="#ff0000" />
         </g>
         
         <g transform="translate(0,105) rotate(270)">
            <polygon points="0,10 5,0 10,10" fill="#000000"/>
            <line x1="5" y1="10" x2="5" y2="100" stroke="#ff0000" />
         </g>
         
         <g transform="translate(195,-2.5) rotate(45)">
            <polygon points="0,10 5,0 10,10" fill="#000000"/>
            <line x1="5" y1="10" x2="5" y2="140" stroke="#ff0000" />
         </g>
         
         <g transform="translate(202.5,195) rotate(135)">
            <polygon points="0,10 5,0 10,10" fill="#000000"/>
            <line x1="5" y1="10" x2="5" y2="140" stroke="#ff0000" />
         </g>
         
         
         
         <line x1="0" y1="0" x2="65" y2="65" stroke="black" stroke-width="1"/>
         <line x1="135" y1="135" x2="200" y2="200" stroke="black" stroke-width="1"/>        
        
         <line x1="135" y1="65" x2="200" y2="0" stroke="black" stroke-width="1"/>
         <line x1="0" y1="200" x2="65" y2="135" stroke="black" stroke-width="1"/>        
        
         <line x1="0" y1="100" x2="50" y2="100" stroke="black" stroke-width="1"/>
         <line x1="150" y1="100" x2="200" y2="100" stroke="black" stroke-width="1"/>
        
         <line x1="100" y1="200" x2="100" y2="150" stroke="black" stroke-width="1"/>
         <line x1="100" y1="0" x2="100" y2="50" stroke="black" stroke-width="1"/>
         
         
    
   </symbol>
   
   
   
  </defs>
  
   <g transform="translate(400,400)" style="visibility:hidden;">
   
      <rect x="-100" y="-100" width="200" height="200" fill="none" stroke="#0000ff"/>
      
      <circle cx="0" cy="0" r="50" stroke="black" stroke-width="1" fill="none" /> 
      
      <use xlink:href="#arrow" transform="translate(-5,-100) rotate(0)" />
      <use xlink:href="#arrow" transform="translate(68,-75) rotate(45)" />
      
      <use xlink:href="#arrow" transform="translate(100,-5) rotate(90)" />
      
      <use xlink:href="#arrow" transform="translate(5,100) rotate(180)" />
      <use xlink:href="#arrow" transform="translate(-100,5) rotate(270)" />
   </g>
   
   <g transform="translate(0,0)" style="visibility:visible;">
      <use xlink:href="#arrow_pattern"  />
   </g>
   
   
   
</svg>
